# xmcd
#
# Track frame offsets:
#	150
#	11955
#	23702
#	34200
#	51224
#	64790
#	78588
#	90879
#	101587
#	114276
#	122320
#	135830
#
# Disc length: 1933 seconds
#
# Revision: 1
# Processed by: cddbd v1.5.2PL0 Copyright (c) Steve Scherf et al.
# Submitted via: audiograbber 1.83.01
#
DISCID=89078b0c
DTITLE=Johnny Cash - Original Hits
DYEAR=2014
DGENRE=Pop
TTITLE0=Ring of fire - [1963]
TTITLE1=I walk the line - [1956]
TTITLE2=Bonanza - [1962]
TTITLE3=(Ghost) Riders in the sky - [1966]
TTITLE4=The chicken in black - [1984]
TTITLE5=Don't take your guns to town - [1959]
TTITLE6=Understand your man - [1964]
TTITLE7=Daddy sang bass - [1969]
TTITLE8=The one the right is on the left - [1966]
TTITLE9=Five feet high and rising - [1959]
TTITLE10=Tennessee flat-top box - [1961]
TTITLE11=I got stripes - [1959]
EXTD=
EXTT0=
EXTT1=
EXTT2=
EXTT3=
EXTT4=
EXTT5=
EXTT6=
EXTT7=
EXTT8=
EXTT9=
EXTT10=
EXTT11=
PLAYORDER=
